M48
METRIC,LZ,000.000
;FILE_FORMAT=3:3
;TYPE=PLATED
;Layer: Drill PTH
;EasyEDA v6.4.17, 2021-02-25T19:03:03+01:00
;6c0f4fe36ed64f8eba938430e6b1039c,39d5087fc9724a43abff86b671d546b8,10
;Gerber Generator version 0.2
;Holesize 1 = 0.305 mm
T01C0.305
;Holesize 2 = 0.915 mm
T02C0.915
;Holesize 3 = 4.000 mm
T03C4.000
%
G05
G90
T01
X033692Y-017729
X033565Y-026843
X033565Y-035509
X035356Y-045681
X046285Y-057902
X046482Y-062992
X084709Y-013843
X080788Y-009922
X064151Y-008128
X060174Y-010049
X043396Y-007068
X048133Y-016129
X068001Y-050054
X041021Y-056023
X014859Y-056023
X062341Y-045608
X068199Y-037211
X051562Y-026289
X040132Y-052070
X047244Y-044323
X050673Y-051816
X056261Y-036703
X056261Y-053594
X045085Y-054610
X054864Y-052070
X050165Y-046482
X048768Y-048260
X052578Y-048260
X030099Y-050927
X030099Y-047117
X042037Y-052070
X042037Y-046482
T02
X084712Y-030306G85X084706Y-030306
X084712Y-027766G85X084706Y-027766
X084712Y-025226G85X084706Y-025226
X084712Y-022686G85X084706Y-022686
X084712Y-020146G85X084706Y-020146
T03
X085217Y-056051
X085217Y-048851
X075565Y-056051
X075565Y-048851
M30
