G04 Layer: TopSolderMaskLayer*
G04 EasyEDA v6.4.17, 2021-02-25T19:03:03+01:00*
G04 6c0f4fe36ed64f8eba938430e6b1039c,39d5087fc9724a43abff86b671d546b8,10*
G04 Gerber Generator version 0.2*
G04 Scale: 100 percent, Rotated: No, Reflected: No *
G04 Dimensions in millimeters *
G04 leading zeros omitted , absolute positions ,4 integer and 5 decimal *
%FSLAX45Y45*%
%MOMM*%

%ADD31C,1.6256*%
%ADD36C,5.7023*%
%ADD38R,3.2032X1.8032*%

%LPD*%
D31*
X8542020Y-3030601D02*
G01*
X8399779Y-3030601D01*
X8542020Y-2776601D02*
G01*
X8399779Y-2776601D01*
X8542020Y-2522601D02*
G01*
X8399779Y-2522601D01*
X8542020Y-2268601D02*
G01*
X8399779Y-2268601D01*
X8542020Y-2014601D02*
G01*
X8399779Y-2014601D01*
G36*
X4522470Y-4100321D02*
G01*
X4522470Y-3979926D01*
X4697729Y-3979926D01*
X4697729Y-4100321D01*
G37*
G36*
X4522470Y-4300473D02*
G01*
X4522470Y-4180078D01*
X4697729Y-4180078D01*
X4697729Y-4300473D01*
G37*
G36*
X4522470Y-3643121D02*
G01*
X4522470Y-3522726D01*
X4697729Y-3522726D01*
X4697729Y-3643121D01*
G37*
G36*
X4522470Y-3843273D02*
G01*
X4522470Y-3722878D01*
X4697729Y-3722878D01*
X4697729Y-3843273D01*
G37*
G36*
X4522470Y-3173221D02*
G01*
X4522470Y-3052826D01*
X4697729Y-3052826D01*
X4697729Y-3173221D01*
G37*
G36*
X4522470Y-3373373D02*
G01*
X4522470Y-3252978D01*
X4697729Y-3252978D01*
X4697729Y-3373373D01*
G37*
G36*
X4509770Y-2703321D02*
G01*
X4509770Y-2582926D01*
X4685029Y-2582926D01*
X4685029Y-2703321D01*
G37*
G36*
X4509770Y-2903473D02*
G01*
X4509770Y-2783078D01*
X4685029Y-2783078D01*
X4685029Y-2903473D01*
G37*
G36*
X4522470Y-2233421D02*
G01*
X4522470Y-2113026D01*
X4697729Y-2113026D01*
X4697729Y-2233421D01*
G37*
G36*
X4522470Y-2433573D02*
G01*
X4522470Y-2313178D01*
X4697729Y-2313178D01*
X4697729Y-2433573D01*
G37*
G36*
X4522470Y-1763521D02*
G01*
X4522470Y-1643126D01*
X4697729Y-1643126D01*
X4697729Y-1763521D01*
G37*
G36*
X4522470Y-1963673D02*
G01*
X4522470Y-1843278D01*
X4697729Y-1843278D01*
X4697729Y-1963673D01*
G37*
G36*
X4522470Y-1306321D02*
G01*
X4522470Y-1185926D01*
X4697729Y-1185926D01*
X4697729Y-1306321D01*
G37*
G36*
X4522470Y-1506473D02*
G01*
X4522470Y-1386078D01*
X4697729Y-1386078D01*
X4697729Y-1506473D01*
G37*
G36*
X4522470Y-849121D02*
G01*
X4522470Y-728726D01*
X4697729Y-728726D01*
X4697729Y-849121D01*
G37*
G36*
X4522470Y-1049273D02*
G01*
X4522470Y-928878D01*
X4697729Y-928878D01*
X4697729Y-1049273D01*
G37*
G36*
X4790947Y-1237487D02*
G01*
X4790947Y-1162304D01*
X4911343Y-1162304D01*
X4911343Y-1237487D01*
G37*
G36*
X4790947Y-1142492D02*
G01*
X4790947Y-1067307D01*
X4911343Y-1067307D01*
X4911343Y-1142492D01*
G37*
G36*
X4790947Y-1047495D02*
G01*
X4790947Y-972312D01*
X4911343Y-972312D01*
X4911343Y-1047495D01*
G37*
G36*
X5070856Y-1047495D02*
G01*
X5070856Y-972312D01*
X5191252Y-972312D01*
X5191252Y-1047495D01*
G37*
G36*
X5070856Y-1142492D02*
G01*
X5070856Y-1067307D01*
X5191252Y-1067307D01*
X5191252Y-1142492D01*
G37*
G36*
X5070856Y-1237487D02*
G01*
X5070856Y-1162304D01*
X5191252Y-1162304D01*
X5191252Y-1237487D01*
G37*
G36*
X4790947Y-2164587D02*
G01*
X4790947Y-2089404D01*
X4911343Y-2089404D01*
X4911343Y-2164587D01*
G37*
G36*
X4790947Y-2069592D02*
G01*
X4790947Y-1994407D01*
X4911343Y-1994407D01*
X4911343Y-2069592D01*
G37*
G36*
X4790947Y-1974595D02*
G01*
X4790947Y-1899412D01*
X4911343Y-1899412D01*
X4911343Y-1974595D01*
G37*
G36*
X5070856Y-1974595D02*
G01*
X5070856Y-1899412D01*
X5191252Y-1899412D01*
X5191252Y-1974595D01*
G37*
G36*
X5070856Y-2069592D02*
G01*
X5070856Y-1994407D01*
X5191252Y-1994407D01*
X5191252Y-2069592D01*
G37*
G36*
X5070856Y-2164587D02*
G01*
X5070856Y-2089404D01*
X5191252Y-2089404D01*
X5191252Y-2164587D01*
G37*
G36*
X4803647Y-3104387D02*
G01*
X4803647Y-3029204D01*
X4924043Y-3029204D01*
X4924043Y-3104387D01*
G37*
G36*
X4803647Y-3009392D02*
G01*
X4803647Y-2934207D01*
X4924043Y-2934207D01*
X4924043Y-3009392D01*
G37*
G36*
X4803647Y-2914395D02*
G01*
X4803647Y-2839212D01*
X4924043Y-2839212D01*
X4924043Y-2914395D01*
G37*
G36*
X5083556Y-2914395D02*
G01*
X5083556Y-2839212D01*
X5203952Y-2839212D01*
X5203952Y-2914395D01*
G37*
G36*
X5083556Y-3009392D02*
G01*
X5083556Y-2934207D01*
X5203952Y-2934207D01*
X5203952Y-3009392D01*
G37*
G36*
X5083556Y-3104387D02*
G01*
X5083556Y-3029204D01*
X5203952Y-3029204D01*
X5203952Y-3104387D01*
G37*
G36*
X4803647Y-4044187D02*
G01*
X4803647Y-3969004D01*
X4924043Y-3969004D01*
X4924043Y-4044187D01*
G37*
G36*
X4803647Y-3949192D02*
G01*
X4803647Y-3874007D01*
X4924043Y-3874007D01*
X4924043Y-3949192D01*
G37*
G36*
X4803647Y-3854195D02*
G01*
X4803647Y-3779012D01*
X4924043Y-3779012D01*
X4924043Y-3854195D01*
G37*
G36*
X5083556Y-3854195D02*
G01*
X5083556Y-3779012D01*
X5203952Y-3779012D01*
X5203952Y-3854195D01*
G37*
G36*
X5083556Y-3949192D02*
G01*
X5083556Y-3874007D01*
X5203952Y-3874007D01*
X5203952Y-3949192D01*
G37*
G36*
X5083556Y-4044187D02*
G01*
X5083556Y-3969004D01*
X5203952Y-3969004D01*
X5203952Y-4044187D01*
G37*
G36*
X3658870Y-4100321D02*
G01*
X3658870Y-3979926D01*
X3834129Y-3979926D01*
X3834129Y-4100321D01*
G37*
G36*
X3658870Y-4300473D02*
G01*
X3658870Y-4180078D01*
X3834129Y-4180078D01*
X3834129Y-4300473D01*
G37*
G36*
X3658870Y-3173221D02*
G01*
X3658870Y-3052826D01*
X3834129Y-3052826D01*
X3834129Y-3173221D01*
G37*
G36*
X3658870Y-3373373D02*
G01*
X3658870Y-3252978D01*
X3834129Y-3252978D01*
X3834129Y-3373373D01*
G37*
G36*
X3658870Y-3630421D02*
G01*
X3658870Y-3510026D01*
X3834129Y-3510026D01*
X3834129Y-3630421D01*
G37*
G36*
X3658870Y-3830573D02*
G01*
X3658870Y-3710178D01*
X3834129Y-3710178D01*
X3834129Y-3830573D01*
G37*
G36*
X3658870Y-2233421D02*
G01*
X3658870Y-2113026D01*
X3834129Y-2113026D01*
X3834129Y-2233421D01*
G37*
G36*
X3658870Y-2433573D02*
G01*
X3658870Y-2313178D01*
X3834129Y-2313178D01*
X3834129Y-2433573D01*
G37*
G36*
X3658870Y-2703321D02*
G01*
X3658870Y-2582926D01*
X3834129Y-2582926D01*
X3834129Y-2703321D01*
G37*
G36*
X3658870Y-2903473D02*
G01*
X3658870Y-2783078D01*
X3834129Y-2783078D01*
X3834129Y-2903473D01*
G37*
G36*
X3658870Y-1306321D02*
G01*
X3658870Y-1185926D01*
X3834129Y-1185926D01*
X3834129Y-1306321D01*
G37*
G36*
X3658870Y-1506473D02*
G01*
X3658870Y-1386078D01*
X3834129Y-1386078D01*
X3834129Y-1506473D01*
G37*
G36*
X3658870Y-1763521D02*
G01*
X3658870Y-1643126D01*
X3834129Y-1643126D01*
X3834129Y-1763521D01*
G37*
G36*
X3658870Y-1963673D02*
G01*
X3658870Y-1843278D01*
X3834129Y-1843278D01*
X3834129Y-1963673D01*
G37*
G36*
X3658870Y-849121D02*
G01*
X3658870Y-728726D01*
X3834129Y-728726D01*
X3834129Y-849121D01*
G37*
G36*
X3658870Y-1049273D02*
G01*
X3658870Y-928878D01*
X3834129Y-928878D01*
X3834129Y-1049273D01*
G37*
G36*
X3929888Y-934212D02*
G01*
X3929888Y-843787D01*
X4075175Y-843787D01*
X4075175Y-934212D01*
G37*
G36*
X4179824Y-839215D02*
G01*
X4179824Y-748792D01*
X4325111Y-748792D01*
X4325111Y-839215D01*
G37*
G36*
X4179824Y-1029207D02*
G01*
X4179824Y-938784D01*
X4325111Y-938784D01*
X4325111Y-1029207D01*
G37*
G36*
X3942588Y-1391412D02*
G01*
X3942588Y-1300987D01*
X4087875Y-1300987D01*
X4087875Y-1391412D01*
G37*
G36*
X4192524Y-1296415D02*
G01*
X4192524Y-1205992D01*
X4337811Y-1205992D01*
X4337811Y-1296415D01*
G37*
G36*
X4192524Y-1486407D02*
G01*
X4192524Y-1395984D01*
X4337811Y-1395984D01*
X4337811Y-1486407D01*
G37*
G36*
X3942588Y-1848612D02*
G01*
X3942588Y-1758187D01*
X4087875Y-1758187D01*
X4087875Y-1848612D01*
G37*
G36*
X4192524Y-1753615D02*
G01*
X4192524Y-1663192D01*
X4337811Y-1663192D01*
X4337811Y-1753615D01*
G37*
G36*
X4192524Y-1943607D02*
G01*
X4192524Y-1853184D01*
X4337811Y-1853184D01*
X4337811Y-1943607D01*
G37*
G36*
X3955288Y-2318512D02*
G01*
X3955288Y-2228087D01*
X4100575Y-2228087D01*
X4100575Y-2318512D01*
G37*
G36*
X4205224Y-2223515D02*
G01*
X4205224Y-2133092D01*
X4350511Y-2133092D01*
X4350511Y-2223515D01*
G37*
G36*
X4205224Y-2413507D02*
G01*
X4205224Y-2323084D01*
X4350511Y-2323084D01*
X4350511Y-2413507D01*
G37*
G36*
X3967988Y-2788412D02*
G01*
X3967988Y-2697987D01*
X4113275Y-2697987D01*
X4113275Y-2788412D01*
G37*
G36*
X4217924Y-2693415D02*
G01*
X4217924Y-2602992D01*
X4363211Y-2602992D01*
X4363211Y-2693415D01*
G37*
G36*
X4217924Y-2883407D02*
G01*
X4217924Y-2792984D01*
X4363211Y-2792984D01*
X4363211Y-2883407D01*
G37*
G36*
X3967988Y-3258312D02*
G01*
X3967988Y-3167887D01*
X4113275Y-3167887D01*
X4113275Y-3258312D01*
G37*
G36*
X4217924Y-3163315D02*
G01*
X4217924Y-3072892D01*
X4363211Y-3072892D01*
X4363211Y-3163315D01*
G37*
G36*
X4217924Y-3353307D02*
G01*
X4217924Y-3262884D01*
X4363211Y-3262884D01*
X4363211Y-3353307D01*
G37*
G36*
X3967988Y-3715512D02*
G01*
X3967988Y-3625087D01*
X4113275Y-3625087D01*
X4113275Y-3715512D01*
G37*
G36*
X4217924Y-3620515D02*
G01*
X4217924Y-3530092D01*
X4363211Y-3530092D01*
X4363211Y-3620515D01*
G37*
G36*
X4217924Y-3810507D02*
G01*
X4217924Y-3720084D01*
X4363211Y-3720084D01*
X4363211Y-3810507D01*
G37*
G36*
X3967988Y-4185412D02*
G01*
X3967988Y-4094987D01*
X4113275Y-4094987D01*
X4113275Y-4185412D01*
G37*
G36*
X4217924Y-4090415D02*
G01*
X4217924Y-3999992D01*
X4363211Y-3999992D01*
X4363211Y-4090415D01*
G37*
G36*
X4217924Y-4280407D02*
G01*
X4217924Y-4189984D01*
X4363211Y-4189984D01*
X4363211Y-4280407D01*
G37*
G36*
X4890770Y-1735073D02*
G01*
X4890770Y-1614678D01*
X5066029Y-1614678D01*
X5066029Y-1735073D01*
G37*
G36*
X4890770Y-1534921D02*
G01*
X4890770Y-1414526D01*
X5066029Y-1414526D01*
X5066029Y-1534921D01*
G37*
G36*
X4890770Y-2674873D02*
G01*
X4890770Y-2554478D01*
X5066029Y-2554478D01*
X5066029Y-2674873D01*
G37*
G36*
X4890770Y-2474721D02*
G01*
X4890770Y-2354326D01*
X5066029Y-2354326D01*
X5066029Y-2474721D01*
G37*
G36*
X4916170Y-3614673D02*
G01*
X4916170Y-3494278D01*
X5091429Y-3494278D01*
X5091429Y-3614673D01*
G37*
G36*
X4916170Y-3414521D02*
G01*
X4916170Y-3294126D01*
X5091429Y-3294126D01*
X5091429Y-3414521D01*
G37*
G36*
X4916170Y-4529073D02*
G01*
X4916170Y-4408678D01*
X5091429Y-4408678D01*
X5091429Y-4529073D01*
G37*
G36*
X4916170Y-4328921D02*
G01*
X4916170Y-4208526D01*
X5091429Y-4208526D01*
X5091429Y-4328921D01*
G37*
G36*
X7697470Y-3871721D02*
G01*
X7697470Y-3751326D01*
X7872729Y-3751326D01*
X7872729Y-3871721D01*
G37*
G36*
X7697470Y-4071873D02*
G01*
X7697470Y-3951478D01*
X7872729Y-3951478D01*
X7872729Y-4071873D01*
G37*
G36*
X7697470Y-2931921D02*
G01*
X7697470Y-2811526D01*
X7872729Y-2811526D01*
X7872729Y-2931921D01*
G37*
G36*
X7697470Y-3132073D02*
G01*
X7697470Y-3011678D01*
X7872729Y-3011678D01*
X7872729Y-3132073D01*
G37*
G36*
X7697470Y-1992121D02*
G01*
X7697470Y-1871726D01*
X7872729Y-1871726D01*
X7872729Y-1992121D01*
G37*
G36*
X7697470Y-2192273D02*
G01*
X7697470Y-2071878D01*
X7872729Y-2071878D01*
X7872729Y-2192273D01*
G37*
G36*
X7697470Y-1052321D02*
G01*
X7697470Y-931926D01*
X7872729Y-931926D01*
X7872729Y-1052321D01*
G37*
G36*
X7697470Y-1252473D02*
G01*
X7697470Y-1132078D01*
X7872729Y-1132078D01*
X7872729Y-1252473D01*
G37*
G36*
X4230370Y-5649721D02*
G01*
X4230370Y-5529326D01*
X4405629Y-5529326D01*
X4405629Y-5649721D01*
G37*
G36*
X4230370Y-5849873D02*
G01*
X4230370Y-5729478D01*
X4405629Y-5729478D01*
X4405629Y-5849873D01*
G37*
G36*
X6431788Y-3956812D02*
G01*
X6431788Y-3866387D01*
X6577075Y-3866387D01*
X6577075Y-3956812D01*
G37*
G36*
X6681724Y-3861815D02*
G01*
X6681724Y-3771392D01*
X6827011Y-3771392D01*
X6827011Y-3861815D01*
G37*
G36*
X6681724Y-4051807D02*
G01*
X6681724Y-3961384D01*
X6827011Y-3961384D01*
X6827011Y-4051807D01*
G37*
G36*
X6444488Y-3017012D02*
G01*
X6444488Y-2926587D01*
X6589775Y-2926587D01*
X6589775Y-3017012D01*
G37*
G36*
X6694424Y-2922015D02*
G01*
X6694424Y-2831592D01*
X6839711Y-2831592D01*
X6839711Y-2922015D01*
G37*
G36*
X6694424Y-3112007D02*
G01*
X6694424Y-3021584D01*
X6839711Y-3021584D01*
X6839711Y-3112007D01*
G37*
G36*
X6444488Y-2077212D02*
G01*
X6444488Y-1986787D01*
X6589775Y-1986787D01*
X6589775Y-2077212D01*
G37*
G36*
X6694424Y-1982215D02*
G01*
X6694424Y-1891792D01*
X6839711Y-1891792D01*
X6839711Y-1982215D01*
G37*
G36*
X6694424Y-2172207D02*
G01*
X6694424Y-2081784D01*
X6839711Y-2081784D01*
X6839711Y-2172207D01*
G37*
G36*
X6444488Y-1150112D02*
G01*
X6444488Y-1059687D01*
X6589775Y-1059687D01*
X6589775Y-1150112D01*
G37*
G36*
X6694424Y-1055115D02*
G01*
X6694424Y-964692D01*
X6839711Y-964692D01*
X6839711Y-1055115D01*
G37*
G36*
X6694424Y-1245107D02*
G01*
X6694424Y-1154684D01*
X6839711Y-1154684D01*
X6839711Y-1245107D01*
G37*
G36*
X6503670Y-5265673D02*
G01*
X6503670Y-5145278D01*
X6678929Y-5145278D01*
X6678929Y-5265673D01*
G37*
G36*
X6503670Y-5065521D02*
G01*
X6503670Y-4945126D01*
X6678929Y-4945126D01*
X6678929Y-5065521D01*
G37*
G36*
X6173977Y-4799329D02*
G01*
X6173977Y-4624070D01*
X6294374Y-4624070D01*
X6294374Y-4799329D01*
G37*
G36*
X5973825Y-4799329D02*
G01*
X5973825Y-4624070D01*
X6094222Y-4624070D01*
X6094222Y-4799329D01*
G37*
G36*
X4602225Y-5320029D02*
G01*
X4602225Y-5144770D01*
X4722622Y-5144770D01*
X4722622Y-5320029D01*
G37*
G36*
X4802377Y-5320029D02*
G01*
X4802377Y-5144770D01*
X4922774Y-5144770D01*
X4922774Y-5320029D01*
G37*
G36*
X3442970Y-5519673D02*
G01*
X3442970Y-5399278D01*
X3618229Y-5399278D01*
X3618229Y-5519673D01*
G37*
G36*
X3442970Y-5319521D02*
G01*
X3442970Y-5199126D01*
X3618229Y-5199126D01*
X3618229Y-5319521D01*
G37*
G36*
X5601970Y-5265673D02*
G01*
X5601970Y-5145278D01*
X5777229Y-5145278D01*
X5777229Y-5265673D01*
G37*
G36*
X5601970Y-5065521D02*
G01*
X5601970Y-4945126D01*
X5777229Y-4945126D01*
X5777229Y-5065521D01*
G37*
G36*
X3074670Y-5519673D02*
G01*
X3074670Y-5399278D01*
X3249929Y-5399278D01*
X3249929Y-5519673D01*
G37*
G36*
X3074670Y-5319521D02*
G01*
X3074670Y-5199126D01*
X3249929Y-5199126D01*
X3249929Y-5319521D01*
G37*
G36*
X6935470Y-5065521D02*
G01*
X6935470Y-4945126D01*
X7110729Y-4945126D01*
X7110729Y-5065521D01*
G37*
G36*
X6935470Y-5265673D02*
G01*
X6935470Y-5145278D01*
X7110729Y-5145278D01*
X7110729Y-5265673D01*
G37*
G36*
X4802377Y-6221729D02*
G01*
X4802377Y-6046470D01*
X4922774Y-6046470D01*
X4922774Y-6221729D01*
G37*
G36*
X4602225Y-6221729D02*
G01*
X4602225Y-6046470D01*
X4722622Y-6046470D01*
X4722622Y-6221729D01*
G37*
G36*
X6161024Y-5245607D02*
G01*
X6161024Y-5155184D01*
X6306311Y-5155184D01*
X6306311Y-5245607D01*
G37*
G36*
X6161024Y-5055615D02*
G01*
X6161024Y-4965192D01*
X6306311Y-4965192D01*
X6306311Y-5055615D01*
G37*
G36*
X5911088Y-5150612D02*
G01*
X5911088Y-5060187D01*
X6056375Y-5060187D01*
X6056375Y-5150612D01*
G37*
G36*
X4802124Y-5829807D02*
G01*
X4802124Y-5739384D01*
X4947411Y-5739384D01*
X4947411Y-5829807D01*
G37*
G36*
X4802124Y-5639815D02*
G01*
X4802124Y-5549392D01*
X4947411Y-5549392D01*
X4947411Y-5639815D01*
G37*
G36*
X4552188Y-5734812D02*
G01*
X4552188Y-5644387D01*
X4697475Y-5644387D01*
X4697475Y-5734812D01*
G37*
G36*
X7179056Y-3854195D02*
G01*
X7179056Y-3779012D01*
X7299452Y-3779012D01*
X7299452Y-3854195D01*
G37*
G36*
X7179056Y-3949192D02*
G01*
X7179056Y-3874007D01*
X7299452Y-3874007D01*
X7299452Y-3949192D01*
G37*
G36*
X7179056Y-4044187D02*
G01*
X7179056Y-3969004D01*
X7299452Y-3969004D01*
X7299452Y-4044187D01*
G37*
G36*
X6899147Y-4044187D02*
G01*
X6899147Y-3969004D01*
X7019543Y-3969004D01*
X7019543Y-4044187D01*
G37*
G36*
X6899147Y-3949192D02*
G01*
X6899147Y-3874007D01*
X7019543Y-3874007D01*
X7019543Y-3949192D01*
G37*
G36*
X6899147Y-3854195D02*
G01*
X6899147Y-3779012D01*
X7019543Y-3779012D01*
X7019543Y-3854195D01*
G37*
G36*
X7179056Y-2914395D02*
G01*
X7179056Y-2839212D01*
X7299452Y-2839212D01*
X7299452Y-2914395D01*
G37*
G36*
X7179056Y-3009392D02*
G01*
X7179056Y-2934207D01*
X7299452Y-2934207D01*
X7299452Y-3009392D01*
G37*
G36*
X7179056Y-3104387D02*
G01*
X7179056Y-3029204D01*
X7299452Y-3029204D01*
X7299452Y-3104387D01*
G37*
G36*
X6899147Y-3104387D02*
G01*
X6899147Y-3029204D01*
X7019543Y-3029204D01*
X7019543Y-3104387D01*
G37*
G36*
X6899147Y-3009392D02*
G01*
X6899147Y-2934207D01*
X7019543Y-2934207D01*
X7019543Y-3009392D01*
G37*
G36*
X6899147Y-2914395D02*
G01*
X6899147Y-2839212D01*
X7019543Y-2839212D01*
X7019543Y-2914395D01*
G37*
G36*
X7179056Y-1974595D02*
G01*
X7179056Y-1899412D01*
X7299452Y-1899412D01*
X7299452Y-1974595D01*
G37*
G36*
X7179056Y-2069592D02*
G01*
X7179056Y-1994407D01*
X7299452Y-1994407D01*
X7299452Y-2069592D01*
G37*
G36*
X7179056Y-2164587D02*
G01*
X7179056Y-2089404D01*
X7299452Y-2089404D01*
X7299452Y-2164587D01*
G37*
G36*
X6899147Y-2164587D02*
G01*
X6899147Y-2089404D01*
X7019543Y-2089404D01*
X7019543Y-2164587D01*
G37*
G36*
X6899147Y-2069592D02*
G01*
X6899147Y-1994407D01*
X7019543Y-1994407D01*
X7019543Y-2069592D01*
G37*
G36*
X6899147Y-1974595D02*
G01*
X6899147Y-1899412D01*
X7019543Y-1899412D01*
X7019543Y-1974595D01*
G37*
G36*
X7179056Y-1034795D02*
G01*
X7179056Y-959612D01*
X7299452Y-959612D01*
X7299452Y-1034795D01*
G37*
G36*
X7179056Y-1129792D02*
G01*
X7179056Y-1054607D01*
X7299452Y-1054607D01*
X7299452Y-1129792D01*
G37*
G36*
X7179056Y-1224787D02*
G01*
X7179056Y-1149604D01*
X7299452Y-1149604D01*
X7299452Y-1224787D01*
G37*
G36*
X6899147Y-1224787D02*
G01*
X6899147Y-1149604D01*
X7019543Y-1149604D01*
X7019543Y-1224787D01*
G37*
G36*
X6899147Y-1129792D02*
G01*
X6899147Y-1054607D01*
X7019543Y-1054607D01*
X7019543Y-1129792D01*
G37*
G36*
X6899147Y-1034795D02*
G01*
X6899147Y-959612D01*
X7019543Y-959612D01*
X7019543Y-1034795D01*
G37*
G36*
X5728970Y-1065021D02*
G01*
X5728970Y-944626D01*
X5904229Y-944626D01*
X5904229Y-1065021D01*
G37*
G36*
X5728970Y-1265173D02*
G01*
X5728970Y-1144778D01*
X5904229Y-1144778D01*
X5904229Y-1265173D01*
G37*
G36*
X6135370Y-1065021D02*
G01*
X6135370Y-944626D01*
X6310629Y-944626D01*
X6310629Y-1065021D01*
G37*
G36*
X6135370Y-1265173D02*
G01*
X6135370Y-1144778D01*
X6310629Y-1144778D01*
X6310629Y-1265173D01*
G37*
G36*
X5716270Y-1992121D02*
G01*
X5716270Y-1871726D01*
X5891529Y-1871726D01*
X5891529Y-1992121D01*
G37*
G36*
X5716270Y-2192273D02*
G01*
X5716270Y-2071878D01*
X5891529Y-2071878D01*
X5891529Y-2192273D01*
G37*
G36*
X6122670Y-1992121D02*
G01*
X6122670Y-1871726D01*
X6297929Y-1871726D01*
X6297929Y-1992121D01*
G37*
G36*
X6122670Y-2192273D02*
G01*
X6122670Y-2071878D01*
X6297929Y-2071878D01*
X6297929Y-2192273D01*
G37*
G36*
X5728970Y-2931921D02*
G01*
X5728970Y-2811526D01*
X5904229Y-2811526D01*
X5904229Y-2931921D01*
G37*
G36*
X5728970Y-3132073D02*
G01*
X5728970Y-3011678D01*
X5904229Y-3011678D01*
X5904229Y-3132073D01*
G37*
G36*
X6148070Y-2931921D02*
G01*
X6148070Y-2811526D01*
X6323329Y-2811526D01*
X6323329Y-2931921D01*
G37*
G36*
X6148070Y-3132073D02*
G01*
X6148070Y-3011678D01*
X6323329Y-3011678D01*
X6323329Y-3132073D01*
G37*
G36*
X5728970Y-3871721D02*
G01*
X5728970Y-3751326D01*
X5904229Y-3751326D01*
X5904229Y-3871721D01*
G37*
G36*
X5728970Y-4071873D02*
G01*
X5728970Y-3951478D01*
X5904229Y-3951478D01*
X5904229Y-4071873D01*
G37*
G36*
X6135370Y-3871721D02*
G01*
X6135370Y-3751326D01*
X6310629Y-3751326D01*
X6310629Y-3871721D01*
G37*
G36*
X6135370Y-4071873D02*
G01*
X6135370Y-3951478D01*
X6310629Y-3951478D01*
X6310629Y-4071873D01*
G37*
G36*
X5347970Y-1265173D02*
G01*
X5347970Y-1144778D01*
X5523229Y-1144778D01*
X5523229Y-1265173D01*
G37*
G36*
X5347970Y-1065021D02*
G01*
X5347970Y-944626D01*
X5523229Y-944626D01*
X5523229Y-1065021D01*
G37*
G36*
X5347970Y-2192273D02*
G01*
X5347970Y-2071878D01*
X5523229Y-2071878D01*
X5523229Y-2192273D01*
G37*
G36*
X5347970Y-1992121D02*
G01*
X5347970Y-1871726D01*
X5523229Y-1871726D01*
X5523229Y-1992121D01*
G37*
G36*
X5347970Y-3132073D02*
G01*
X5347970Y-3011678D01*
X5523229Y-3011678D01*
X5523229Y-3132073D01*
G37*
G36*
X5347970Y-2931921D02*
G01*
X5347970Y-2811526D01*
X5523229Y-2811526D01*
X5523229Y-2931921D01*
G37*
G36*
X5347970Y-4071873D02*
G01*
X5347970Y-3951478D01*
X5523229Y-3951478D01*
X5523229Y-4071873D01*
G37*
G36*
X5347970Y-3871721D02*
G01*
X5347970Y-3751326D01*
X5523229Y-3751326D01*
X5523229Y-3871721D01*
G37*
G36*
X7418070Y-3871721D02*
G01*
X7418070Y-3751326D01*
X7593329Y-3751326D01*
X7593329Y-3871721D01*
G37*
G36*
X7418070Y-4071873D02*
G01*
X7418070Y-3951478D01*
X7593329Y-3951478D01*
X7593329Y-4071873D01*
G37*
G36*
X7418070Y-2931921D02*
G01*
X7418070Y-2811526D01*
X7593329Y-2811526D01*
X7593329Y-2931921D01*
G37*
G36*
X7418070Y-3132073D02*
G01*
X7418070Y-3011678D01*
X7593329Y-3011678D01*
X7593329Y-3132073D01*
G37*
G36*
X7430770Y-1992121D02*
G01*
X7430770Y-1871726D01*
X7606029Y-1871726D01*
X7606029Y-1992121D01*
G37*
G36*
X7430770Y-2192273D02*
G01*
X7430770Y-2071878D01*
X7606029Y-2071878D01*
X7606029Y-2192273D01*
G37*
G36*
X7418070Y-1052321D02*
G01*
X7418070Y-931926D01*
X7593329Y-931926D01*
X7593329Y-1052321D01*
G37*
G36*
X7418070Y-1252473D02*
G01*
X7418070Y-1132078D01*
X7593329Y-1132078D01*
X7593329Y-1252473D01*
G37*
G36*
X2312670Y-4976621D02*
G01*
X2312670Y-4856226D01*
X2487929Y-4856226D01*
X2487929Y-4976621D01*
G37*
G36*
X2312670Y-5176773D02*
G01*
X2312670Y-5056378D01*
X2487929Y-5056378D01*
X2487929Y-5176773D01*
G37*
D36*
G01*
X8521700Y-5605094D03*
G01*
X8521700Y-4885105D03*
G01*
X7556500Y-5605094D03*
G01*
X7556500Y-4885105D03*
G36*
X446278Y-932434D02*
G01*
X446278Y-312165D01*
X1116584Y-312165D01*
X1116584Y-932434D01*
G37*
G36*
X1344676Y-942594D02*
G01*
X1344676Y-762254D01*
X1664970Y-762254D01*
X1664970Y-942594D01*
G37*
D38*
G01*
X1504061Y-392429D03*
G36*
X433578Y-1846834D02*
G01*
X433578Y-1226565D01*
X1103884Y-1226565D01*
X1103884Y-1846834D01*
G37*
G36*
X1331976Y-1856994D02*
G01*
X1331976Y-1676654D01*
X1652270Y-1676654D01*
X1652270Y-1856994D01*
G37*
G01*
X1491361Y-1306829D03*
G36*
X433578Y-2761234D02*
G01*
X433578Y-2140965D01*
X1103884Y-2140965D01*
X1103884Y-2761234D01*
G37*
G36*
X1331976Y-2771394D02*
G01*
X1331976Y-2591054D01*
X1652270Y-2591054D01*
X1652270Y-2771394D01*
G37*
G01*
X1491361Y-2221229D03*
G36*
X2008377Y-932434D02*
G01*
X2008377Y-312165D01*
X2678684Y-312165D01*
X2678684Y-932434D01*
G37*
G36*
X2906775Y-942594D02*
G01*
X2906775Y-762254D01*
X3227070Y-762254D01*
X3227070Y-942594D01*
G37*
G01*
X3066161Y-392429D03*
G36*
X1995677Y-1859534D02*
G01*
X1995677Y-1239265D01*
X2665984Y-1239265D01*
X2665984Y-1859534D01*
G37*
G36*
X2894075Y-1869694D02*
G01*
X2894075Y-1689354D01*
X3214370Y-1689354D01*
X3214370Y-1869694D01*
G37*
G01*
X3053461Y-1319529D03*
G36*
X1982977Y-2786634D02*
G01*
X1982977Y-2166365D01*
X2653284Y-2166365D01*
X2653284Y-2786634D01*
G37*
G36*
X2881375Y-2796794D02*
G01*
X2881375Y-2616454D01*
X3201670Y-2616454D01*
X3201670Y-2796794D01*
G37*
G01*
X3040761Y-2246629D03*
G36*
X420878Y-3675634D02*
G01*
X420878Y-3055365D01*
X1091184Y-3055365D01*
X1091184Y-3675634D01*
G37*
G36*
X1319276Y-3685794D02*
G01*
X1319276Y-3505454D01*
X1639570Y-3505454D01*
X1639570Y-3685794D01*
G37*
G01*
X1478661Y-3135629D03*
G36*
X1970277Y-3688334D02*
G01*
X1970277Y-3068065D01*
X2640584Y-3068065D01*
X2640584Y-3688334D01*
G37*
G36*
X2868675Y-3698494D02*
G01*
X2868675Y-3518154D01*
X3188970Y-3518154D01*
X3188970Y-3698494D01*
G37*
G01*
X3028061Y-3148329D03*
G36*
X408178Y-4590034D02*
G01*
X408178Y-3969765D01*
X1078484Y-3969765D01*
X1078484Y-4590034D01*
G37*
G36*
X1306576Y-4600194D02*
G01*
X1306576Y-4419854D01*
X1626870Y-4419854D01*
X1626870Y-4600194D01*
G37*
G01*
X1465961Y-4050029D03*
G36*
X1957577Y-4602734D02*
G01*
X1957577Y-3982465D01*
X2627884Y-3982465D01*
X2627884Y-4602734D01*
G37*
G36*
X2855975Y-4612894D02*
G01*
X2855975Y-4432554D01*
X3176270Y-4432554D01*
X3176270Y-4612894D01*
G37*
G01*
X3015361Y-4062729D03*
G36*
X1018539Y-5837936D02*
G01*
X1018539Y-5657850D01*
X1368805Y-5657850D01*
X1368805Y-5837936D01*
G37*
G36*
X1018539Y-5187950D02*
G01*
X1018539Y-5007610D01*
X1368805Y-5007610D01*
X1368805Y-5187950D01*
G37*
G36*
X383539Y-5825236D02*
G01*
X383539Y-5645150D01*
X733805Y-5645150D01*
X733805Y-5825236D01*
G37*
G36*
X383539Y-5175250D02*
G01*
X383539Y-4994910D01*
X733805Y-4994910D01*
X733805Y-5175250D01*
G37*
M02*
