G04 Layer: TopPasteMaskLayer*
G04 EasyEDA v6.4.17, 2021-02-25T19:03:03+01:00*
G04 6c0f4fe36ed64f8eba938430e6b1039c,39d5087fc9724a43abff86b671d546b8,10*
G04 Gerber Generator version 0.2*
G04 Scale: 100 percent, Rotated: No, Reflected: No *
G04 Dimensions in millimeters *
G04 leading zeros omitted , absolute positions ,4 integer and 5 decimal *
%FSLAX45Y45*%
%MOMM*%

%ADD17R,1.5500X1.0000*%
%ADD18R,1.0000X0.5500*%
%ADD19R,1.2500X0.7000*%
%ADD20R,1.0000X1.5500*%
%ADD22R,3.0000X1.6000*%
%ADD23R,3.3000X1.6000*%

%LPD*%
D17*
G01*
X4610100Y-4040200D03*
G01*
X4610100Y-4240199D03*
G01*
X4610100Y-3583000D03*
G01*
X4610100Y-3782999D03*
G01*
X4610100Y-3113100D03*
G01*
X4610100Y-3313099D03*
G01*
X4597400Y-2643200D03*
G01*
X4597400Y-2843199D03*
G01*
X4610100Y-2173300D03*
G01*
X4610100Y-2373299D03*
G01*
X4610100Y-1703400D03*
G01*
X4610100Y-1903399D03*
G01*
X4610100Y-1246200D03*
G01*
X4610100Y-1446199D03*
G01*
X4610100Y-789000D03*
G01*
X4610100Y-988999D03*
G36*
X4801095Y-1172395D02*
G01*
X4901095Y-1172395D01*
X4901095Y-1227396D01*
X4801095Y-1227396D01*
G37*
G36*
X4801095Y-1077399D02*
G01*
X4901095Y-1077399D01*
X4901095Y-1132400D01*
X4801095Y-1132400D01*
G37*
G36*
X4801095Y-982403D02*
G01*
X4901095Y-982403D01*
X4901095Y-1037404D01*
X4801095Y-1037404D01*
G37*
G36*
X5081104Y-982403D02*
G01*
X5181104Y-982403D01*
X5181104Y-1037404D01*
X5081104Y-1037404D01*
G37*
G36*
X5081104Y-1077399D02*
G01*
X5181104Y-1077399D01*
X5181104Y-1132400D01*
X5081104Y-1132400D01*
G37*
G36*
X5081104Y-1172395D02*
G01*
X5181104Y-1172395D01*
X5181104Y-1227396D01*
X5081104Y-1227396D01*
G37*
G36*
X4801095Y-2099495D02*
G01*
X4901095Y-2099495D01*
X4901095Y-2154496D01*
X4801095Y-2154496D01*
G37*
G36*
X4801095Y-2004499D02*
G01*
X4901095Y-2004499D01*
X4901095Y-2059500D01*
X4801095Y-2059500D01*
G37*
G36*
X4801095Y-1909503D02*
G01*
X4901095Y-1909503D01*
X4901095Y-1964504D01*
X4801095Y-1964504D01*
G37*
G36*
X5081104Y-1909503D02*
G01*
X5181104Y-1909503D01*
X5181104Y-1964504D01*
X5081104Y-1964504D01*
G37*
G36*
X5081104Y-2004499D02*
G01*
X5181104Y-2004499D01*
X5181104Y-2059500D01*
X5081104Y-2059500D01*
G37*
G36*
X5081104Y-2099495D02*
G01*
X5181104Y-2099495D01*
X5181104Y-2154496D01*
X5081104Y-2154496D01*
G37*
G36*
X4813795Y-3039295D02*
G01*
X4913795Y-3039295D01*
X4913795Y-3094296D01*
X4813795Y-3094296D01*
G37*
G36*
X4813795Y-2944299D02*
G01*
X4913795Y-2944299D01*
X4913795Y-2999300D01*
X4813795Y-2999300D01*
G37*
G36*
X4813795Y-2849303D02*
G01*
X4913795Y-2849303D01*
X4913795Y-2904304D01*
X4813795Y-2904304D01*
G37*
G36*
X5093804Y-2849303D02*
G01*
X5193804Y-2849303D01*
X5193804Y-2904304D01*
X5093804Y-2904304D01*
G37*
G36*
X5093804Y-2944299D02*
G01*
X5193804Y-2944299D01*
X5193804Y-2999300D01*
X5093804Y-2999300D01*
G37*
G36*
X5093804Y-3039295D02*
G01*
X5193804Y-3039295D01*
X5193804Y-3094296D01*
X5093804Y-3094296D01*
G37*
G36*
X4813795Y-3979095D02*
G01*
X4913795Y-3979095D01*
X4913795Y-4034096D01*
X4813795Y-4034096D01*
G37*
G36*
X4813795Y-3884099D02*
G01*
X4913795Y-3884099D01*
X4913795Y-3939100D01*
X4813795Y-3939100D01*
G37*
G36*
X4813795Y-3789103D02*
G01*
X4913795Y-3789103D01*
X4913795Y-3844104D01*
X4813795Y-3844104D01*
G37*
G36*
X5093804Y-3789103D02*
G01*
X5193804Y-3789103D01*
X5193804Y-3844104D01*
X5093804Y-3844104D01*
G37*
G36*
X5093804Y-3884099D02*
G01*
X5193804Y-3884099D01*
X5193804Y-3939100D01*
X5093804Y-3939100D01*
G37*
G36*
X5093804Y-3979095D02*
G01*
X5193804Y-3979095D01*
X5193804Y-4034096D01*
X5093804Y-4034096D01*
G37*
G01*
X3746500Y-4040200D03*
G01*
X3746500Y-4240199D03*
G01*
X3746500Y-3113100D03*
G01*
X3746500Y-3313099D03*
G01*
X3746500Y-3570300D03*
G01*
X3746500Y-3770299D03*
G01*
X3746500Y-2173300D03*
G01*
X3746500Y-2373299D03*
G01*
X3746500Y-2643200D03*
G01*
X3746500Y-2843199D03*
G01*
X3746500Y-1246200D03*
G01*
X3746500Y-1446199D03*
G01*
X3746500Y-1703400D03*
G01*
X3746500Y-1903399D03*
G01*
X3746500Y-789000D03*
G01*
X3746500Y-988999D03*
D19*
G01*
X4002531Y-889000D03*
G01*
X4252468Y-794004D03*
G01*
X4252468Y-983995D03*
G01*
X4015231Y-1346200D03*
G01*
X4265168Y-1251204D03*
G01*
X4265168Y-1441195D03*
G01*
X4015231Y-1803400D03*
G01*
X4265168Y-1708404D03*
G01*
X4265168Y-1898395D03*
G01*
X4027931Y-2273300D03*
G01*
X4277868Y-2178304D03*
G01*
X4277868Y-2368295D03*
G01*
X4040631Y-2743200D03*
G01*
X4290568Y-2648204D03*
G01*
X4290568Y-2838195D03*
G01*
X4040631Y-3213100D03*
G01*
X4290568Y-3118104D03*
G01*
X4290568Y-3308095D03*
G01*
X4040631Y-3670300D03*
G01*
X4290568Y-3575304D03*
G01*
X4290568Y-3765295D03*
G01*
X4040631Y-4140200D03*
G01*
X4290568Y-4045204D03*
G01*
X4290568Y-4235195D03*
D17*
G01*
X4978400Y-1674799D03*
G01*
X4978400Y-1474800D03*
G01*
X4978400Y-2614599D03*
G01*
X4978400Y-2414600D03*
G01*
X5003800Y-3554399D03*
G01*
X5003800Y-3354400D03*
G01*
X5003800Y-4468799D03*
G01*
X5003800Y-4268800D03*
G01*
X7785100Y-3811600D03*
G01*
X7785100Y-4011599D03*
G01*
X7785100Y-2871800D03*
G01*
X7785100Y-3071799D03*
G01*
X7785100Y-1932000D03*
G01*
X7785100Y-2131999D03*
G01*
X7785100Y-992200D03*
G01*
X7785100Y-1192199D03*
G01*
X4318000Y-5589600D03*
G01*
X4318000Y-5789599D03*
D19*
G01*
X6504431Y-3911600D03*
G01*
X6754368Y-3816604D03*
G01*
X6754368Y-4006595D03*
G01*
X6517131Y-2971800D03*
G01*
X6767068Y-2876804D03*
G01*
X6767068Y-3066795D03*
G01*
X6517131Y-2032000D03*
G01*
X6767068Y-1937004D03*
G01*
X6767068Y-2126995D03*
G01*
X6517131Y-1104900D03*
G01*
X6767068Y-1009904D03*
G01*
X6767068Y-1199895D03*
D17*
G01*
X6591300Y-5205399D03*
G01*
X6591300Y-5005400D03*
G36*
X6184099Y-4634199D02*
G01*
X6284099Y-4634199D01*
X6284099Y-4789200D01*
X6184099Y-4789200D01*
G37*
G36*
X5984100Y-4634199D02*
G01*
X6084100Y-4634199D01*
X6084100Y-4789200D01*
X5984100Y-4789200D01*
G37*
D20*
G01*
X4662500Y-5232400D03*
G01*
X4862499Y-5232400D03*
D17*
G01*
X3530600Y-5459399D03*
G01*
X3530600Y-5259400D03*
G01*
X5689600Y-5205399D03*
G01*
X5689600Y-5005400D03*
G01*
X3162300Y-5459399D03*
G01*
X3162300Y-5259400D03*
G01*
X7023100Y-5005400D03*
G01*
X7023100Y-5205399D03*
G36*
X4812499Y-6056599D02*
G01*
X4912499Y-6056599D01*
X4912499Y-6211600D01*
X4812499Y-6211600D01*
G37*
G36*
X4612500Y-6056599D02*
G01*
X4712500Y-6056599D01*
X4712500Y-6211600D01*
X4612500Y-6211600D01*
G37*
D19*
G01*
X6233668Y-5200395D03*
G01*
X6233668Y-5010404D03*
G01*
X5983731Y-5105400D03*
G01*
X4874768Y-5784595D03*
G01*
X4874768Y-5594604D03*
G01*
X4624831Y-5689600D03*
D18*
G01*
X7239304Y-3816604D03*
G01*
X7239304Y-3911600D03*
G01*
X7239304Y-4006595D03*
G01*
X6959295Y-4006595D03*
G01*
X6959295Y-3911600D03*
G01*
X6959295Y-3816604D03*
G01*
X7239304Y-2876804D03*
G01*
X7239304Y-2971800D03*
G01*
X7239304Y-3066795D03*
G01*
X6959295Y-3066795D03*
G01*
X6959295Y-2971800D03*
G01*
X6959295Y-2876804D03*
G01*
X7239304Y-1937004D03*
G01*
X7239304Y-2032000D03*
G01*
X7239304Y-2126995D03*
G01*
X6959295Y-2126995D03*
G01*
X6959295Y-2032000D03*
G01*
X6959295Y-1937004D03*
G01*
X7239304Y-997204D03*
G01*
X7239304Y-1092200D03*
G01*
X7239304Y-1187195D03*
G01*
X6959295Y-1187195D03*
G01*
X6959295Y-1092200D03*
G01*
X6959295Y-997204D03*
D17*
G01*
X5816600Y-1004900D03*
G01*
X5816600Y-1204899D03*
G01*
X6223000Y-1004900D03*
G01*
X6223000Y-1204899D03*
G01*
X5803900Y-1932000D03*
G01*
X5803900Y-2131999D03*
G01*
X6210300Y-1932000D03*
G01*
X6210300Y-2131999D03*
G01*
X5816600Y-2871800D03*
G01*
X5816600Y-3071799D03*
G01*
X6235700Y-2871800D03*
G01*
X6235700Y-3071799D03*
G01*
X5816600Y-3811600D03*
G01*
X5816600Y-4011599D03*
G01*
X6223000Y-3811600D03*
G01*
X6223000Y-4011599D03*
G01*
X5435600Y-1204899D03*
G01*
X5435600Y-1004900D03*
G01*
X5435600Y-2131999D03*
G01*
X5435600Y-1932000D03*
G01*
X5435600Y-3071799D03*
G01*
X5435600Y-2871800D03*
G01*
X5435600Y-4011599D03*
G01*
X5435600Y-3811600D03*
G01*
X7505700Y-3811600D03*
G01*
X7505700Y-4011599D03*
G01*
X7505700Y-2871800D03*
G01*
X7505700Y-3071799D03*
G01*
X7518400Y-1932000D03*
G01*
X7518400Y-2131999D03*
G01*
X7505700Y-992200D03*
G01*
X7505700Y-1192199D03*
G01*
X2400300Y-4916500D03*
G01*
X2400300Y-5116499D03*
G36*
X456311Y-922273D02*
G01*
X456311Y-322326D01*
X1106296Y-322326D01*
X1106296Y-922273D01*
G37*
D22*
G01*
X1504695Y-852296D03*
G36*
X1353946Y-472439D02*
G01*
X1353946Y-312420D01*
X1654175Y-312420D01*
X1654175Y-472439D01*
G37*
G36*
X443611Y-1836673D02*
G01*
X443611Y-1236726D01*
X1093596Y-1236726D01*
X1093596Y-1836673D01*
G37*
G01*
X1491995Y-1766696D03*
G36*
X1341246Y-1386839D02*
G01*
X1341246Y-1226820D01*
X1641475Y-1226820D01*
X1641475Y-1386839D01*
G37*
G36*
X443611Y-2751073D02*
G01*
X443611Y-2151126D01*
X1093596Y-2151126D01*
X1093596Y-2751073D01*
G37*
G01*
X1491995Y-2681096D03*
G36*
X1341246Y-2301239D02*
G01*
X1341246Y-2141220D01*
X1641475Y-2141220D01*
X1641475Y-2301239D01*
G37*
G36*
X2018411Y-922273D02*
G01*
X2018411Y-322326D01*
X2668397Y-322326D01*
X2668397Y-922273D01*
G37*
G01*
X3066795Y-852296D03*
G36*
X2916047Y-472439D02*
G01*
X2916047Y-312420D01*
X3216275Y-312420D01*
X3216275Y-472439D01*
G37*
G36*
X2005711Y-1849373D02*
G01*
X2005711Y-1249426D01*
X2655697Y-1249426D01*
X2655697Y-1849373D01*
G37*
G01*
X3054095Y-1779396D03*
G36*
X2903347Y-1399539D02*
G01*
X2903347Y-1239520D01*
X3203575Y-1239520D01*
X3203575Y-1399539D01*
G37*
G36*
X1993011Y-2776473D02*
G01*
X1993011Y-2176526D01*
X2642997Y-2176526D01*
X2642997Y-2776473D01*
G37*
G01*
X3041395Y-2706496D03*
G36*
X2890647Y-2326639D02*
G01*
X2890647Y-2166620D01*
X3190875Y-2166620D01*
X3190875Y-2326639D01*
G37*
G36*
X430911Y-3665473D02*
G01*
X430911Y-3065526D01*
X1080896Y-3065526D01*
X1080896Y-3665473D01*
G37*
G01*
X1479295Y-3595496D03*
G36*
X1328546Y-3215639D02*
G01*
X1328546Y-3055620D01*
X1628775Y-3055620D01*
X1628775Y-3215639D01*
G37*
G36*
X1980311Y-3678173D02*
G01*
X1980311Y-3078226D01*
X2630297Y-3078226D01*
X2630297Y-3678173D01*
G37*
G01*
X3028695Y-3608196D03*
G36*
X2877947Y-3228339D02*
G01*
X2877947Y-3068320D01*
X3178175Y-3068320D01*
X3178175Y-3228339D01*
G37*
G36*
X418211Y-4579873D02*
G01*
X418211Y-3979926D01*
X1068196Y-3979926D01*
X1068196Y-4579873D01*
G37*
G01*
X1466595Y-4509896D03*
G36*
X1315846Y-4130039D02*
G01*
X1315846Y-3970020D01*
X1616075Y-3970020D01*
X1616075Y-4130039D01*
G37*
G36*
X1967611Y-4592573D02*
G01*
X1967611Y-3992626D01*
X2617597Y-3992626D01*
X2617597Y-4592573D01*
G37*
G01*
X3015995Y-4522596D03*
G36*
X2865247Y-4142739D02*
G01*
X2865247Y-3982720D01*
X3165475Y-3982720D01*
X3165475Y-4142739D01*
G37*
D23*
G01*
X1193698Y-5747893D03*
G01*
X1193698Y-5097906D03*
G01*
X558698Y-5735193D03*
G01*
X558698Y-5085206D03*
M02*
